<?xml version="1.0" encoding="utf-8"?>
<!-- Generator: Adobe Illustrator 22.1.0, SVG Export Plug-In . SVG Version: 6.00 Build 0)  -->
<svg version="1.1" id="Layer_1" xmlns="http://www.w3.org/2000/svg" xmlns:xlink="http://www.w3.org/1999/xlink" x="0px" y="0px"
	 viewBox="0 0 748 317" style="enable-background:new 0 0 748 317;" xml:space="preserve">
<style type="text/css">
	.st0{fill:#EABD00;}
	.st1{stroke:#000000;stroke-width:3;stroke-miterlimit:10;}
	.st2{fill:#FFFFFF;stroke:#000000;stroke-miterlimit:10;}
</style>
<circle class="st0" cx="153" cy="159" r="143"/>
<path d="M121.9,23.4L53.5,91.3v213.5h211.3V23.4H121.9z M246,283.8H72.8V110h67.8V42.7H246V283.8z"/>
<rect x="100.9" y="131" class="st1" width="116.9" height="10.8"/>
<rect x="100.4" y="152.1" class="st1" width="116.9" height="10.8"/>
<rect x="100.4" y="173.8" class="st1" width="116.9" height="10.8"/>
<rect x="100.3" y="194.9" class="st1" width="67.8" height="10.8"/>
<circle cx="246.6" cy="255.6" r="55.4"/>
<circle class="st2" cx="246.3" cy="255.4" r="41.2"/>
<path d="M238.6,280v-22c0-1.2-1-2.2-2.2-2.2h-12c-2,0-3-2.4-1.6-3.8l22.1-22.1c0.9-0.9,2.3-0.9,3.2,0l21.6,22.1
	c1.4,1.4,0.4,3.8-1.6,3.8h-9.6c-1.2,0-2.2,1-2.2,2.2v22c0,1.2-1,2.2-2.2,2.2h-13.2C239.6,282.2,238.6,281.2,238.6,280z"/>
<g>
	<path d="M312.8,141.7c-1.2-2.3-2.1-3.9-4.3-5.2c-1.5-0.9-3.4-1.7-5.5-1.7c-2.2-0.1-4.3,0.5-5.6,1.3c-1.6,1-2.4,2.5-2.4,3.9
		c0,0.8,0.3,1.6,0.9,2.2c0.8,0.9,3,1.7,5.3,2.5l8.1,2.3c4.1,1.2,6.5,2.5,8.6,4.4c2.8,2.6,4.3,6.1,4.3,9.9c0,4.1-2.3,8.3-6,10.8
		c-3.6,2.4-7.8,3-12.7,3c-6.2,0-11.5-1.6-15.3-6.3c-2.3-2.8-3.5-6-4.2-9l8.9-2.4c0.4,2.3,1.2,4.3,2.3,5.7c1.9,2.6,5.5,3.7,8.6,3.7
		c2.5,0,5.6-0.7,7.2-2c1.5-1.1,1.9-2.5,1.9-3.8c0-1.2-0.5-2.4-1.4-3.2c-1-0.9-2.3-1.5-4.1-2.1l-8.7-2.5c-3.5-1-6.7-2.3-8.9-4.3
		c-2.8-2.3-4-5.8-4-9c0-5.1,3.3-9.5,7.6-11.4c3.4-1.6,6.7-1.8,9.8-1.8c3.2,0.1,6.7,0.6,9.8,2.3c3.9,2.1,7,5.8,8.8,10.5L312.8,141.7z
		"/>
	<path d="M360,139.1V174h-7.8v-2.4c-2.8,2.2-6.3,3.2-9.4,3.4c-3.9,0.1-8-1.4-10.8-3.9c-4.1-3.8-4.7-8.5-4.7-14.5v-17.4h8.9v17.4
		c0,3.2,0.5,6.1,2.3,7.9c1.2,1.3,3.1,1.9,5.5,1.9c1.6-0.1,3-0.5,4.1-1.4c1.3-1,2.2-2.5,2.6-4.5c0.3-1.5,0.4-3.9,0.4-6.3v-15.2H360z"
		/>
	<path d="M403,156.6c0,4.8-1.1,9.2-4.1,12.9c-2.8,3.6-7.4,5.6-12,5.6c-3.9,0-7.4-1-10.1-3.1v2.1h-7.8v-46.5h8.8v13
		c2.5-1.5,5.4-2.4,8.5-2.4c4.8,0,9.5,1.9,12.5,5.6C401.6,147.1,403,151.7,403,156.6z M393.7,156.6c0-3-0.6-5.7-1.9-7.5
		c-1.5-2.3-3.7-3.1-6.7-3.1c-2.4,0-4.5,0.8-5.9,2.5c-1.7,1.9-2.5,5-2.5,8.1s0.8,6.3,2.5,8.1c1.6,1.7,3.7,2.5,6.2,2.5
		c2.5,0,5-0.8,6.5-3.1C393.2,162.2,393.7,159.5,393.7,156.6z"/>
	<path d="M461.2,152.8V174h-8.9v-21.3c0-2.3-0.5-3.4-1.7-4.8c-1.1-1.2-2.8-1.9-4.5-1.9c-1.7,0-3.4,0.7-4.5,1.9
		c-1.4,1.5-1.6,3.1-1.6,4.8V174h-8.9v-21.3c0-2.3-0.5-3.4-1.7-4.8c-1.1-1.2-2.8-1.9-4.5-1.9c-1.7,0-3.4,0.7-4.5,1.9
		c-1.4,1.5-1.6,3.1-1.6,4.8V174h-8.8v-34.9h7.8v3.7c2.5-2.9,6.2-4.6,10.1-4.6c2.9,0,6.1,1.3,8.3,3.3c0.8,0.7,1.4,1.5,1.9,2.3
		c2.4-3.6,6.5-5.6,10.9-5.6c2.9,0,6.1,1.3,8.3,3.3C460.4,144.3,461.2,148.3,461.2,152.8z"/>
	<path d="M478.3,126.5v7.8h-8.8v-7.8H478.3z M478.3,139.1V174h-8.8v-34.9H478.3z"/>
	<path d="M500.2,145.9v12.7c0,2.7,0.1,4.7,0.8,5.9c0.8,1.2,2.2,2,3.6,2.1c1.7,0.1,3.8,0.1,5.7-0.2v7.6c-2.8,0.8-7.6,0.9-10.2,0.2
		c-3.2-0.9-5.6-2.5-7-5c-1.5-2.8-1.7-6.1-1.7-9.9v-13.3h-7.2v-6.8h7.2v-9.7h8.8v9.7h10.1v6.8H500.2z"/>
	<path d="M565.3,152c-2.7,3.7-7.4,6.2-12.5,6.2h-12.5V174h-8.8v-46.5h21.3c1.6,0,3.2,0.3,4.7,0.7c3.1,1,5.9,2.9,7.8,5.6
		c1.9,2.6,3,5.9,3.1,9.1S567.2,149.4,565.3,152z M559.5,142.9c-0.1-1.7-0.6-3.4-1.7-4.6c-1.2-1.4-3.2-2.5-5-2.5h-12.4V150h12.4
		c1.7,0,3.9-1,5.3-2.8C558.9,145.9,559.5,144.4,559.5,142.9z"/>
	<path d="M575.9,169.2c-3-3.6-4.3-7.8-4.3-12.6c0-4.9,1.5-9.2,4.3-12.6c3.2-3.8,8.3-5.8,13.4-5.8c5.2,0,10.1,1.9,13.4,5.8
		c3.1,3.7,4.3,7.9,4.3,12.6c0,5-1.4,8.9-4.3,12.6c-3.3,3.9-8.1,5.8-13.4,5.8C584.1,175,579.1,173,575.9,169.2z M597.6,156.6
		c0-2.6-0.5-5.4-2-7.3c-1.4-1.9-3.8-2.9-6.4-2.9c-2.6,0-5,1-6.4,2.9c-1.5,1.9-1.9,4.7-1.9,7.3s0.5,5.3,1.9,7.2c1.4,1.9,3.8,3,6.4,3
		c2.6,0,5-1,6.4-3C597.1,161.9,597.6,159.2,597.6,156.6z"/>
	<path d="M633.3,150.4c-0.4-1.2-1.5-2.5-2.7-3.1c-1-0.6-2.3-0.9-3.7-0.9c-1.6,0-2.9,0.3-3.8,0.8c-1,0.6-1.2,1.2-1.2,1.6
		c0,0.3,0.1,0.6,0.2,0.8c0.5,0.6,1.9,1.2,3.7,1.7c1.7,0.5,3.7,1,5.5,1.5c2.9,0.9,4.6,1.3,6.8,3.2c2.8,2.2,4.3,5.2,4.1,8.7
		c-0.3,3.3-2.1,6.1-5,8c-2.8,1.7-6.1,2.3-9.7,2.3c-4.8,0-8.8-1.2-12.1-4.7c-1.6-1.8-3.6-5.7-3.7-7.5l8.3-2.1c0,1,0.6,3,1.6,3.9
		c1.5,1.7,3.7,2,5.8,2c1.6,0,3.9-0.3,4.9-1.2c0.6-0.6,0.8-1,0.9-1.6c0-0.6-0.1-1.1-0.6-1.5c-0.8-0.8-2.5-1.4-3.6-1.7
		c-1.9-0.5-3.7-1-5.6-1.5c-3.2-0.8-5.1-1.7-6.9-3.1c-2.4-1.8-3.6-4.7-3.6-7.1c0-4.4,2.7-7.9,6.4-9.5c2.7-1.2,5.2-1.4,7.6-1.4
		c2.4,0,5,0.5,7.4,1.7c3.4,1.7,6.1,4.8,7.4,8.5L633.3,150.4z"/>
	<path d="M661.1,145.9v12.7c0,2.7,0.1,4.7,0.8,5.9c0.8,1.2,2.2,2,3.6,2.1c1.7,0.1,3.8,0.1,5.7-0.2v7.6c-2.8,0.8-7.6,0.9-10.2,0.2
		c-3.2-0.9-5.6-2.5-7-5c-1.5-2.8-1.7-6.1-1.7-9.9v-13.3h-7.2v-6.8h7.2v-9.7h8.8v9.7h10.1v6.8H661.1z"/>
	<path d="M688.3,163.8c1.4,1.9,3.8,3,6.3,3c2.6,0,4.9-1,6.4-3c0.3-0.4,0.4-0.8,0.6-1.1l8.7,3.8c-0.6,1-1.3,1.9-2.1,2.8
		c-3.5,3.9-8.5,5.9-13.7,5.6c-5.2-0.3-10.1-1.9-13.4-5.8c-3-3.6-4.4-8-4.3-12.6c0.1-4.8,1.4-9.1,4.3-12.6c3.2-3.8,8.2-5.8,13.4-5.8
		s10.1,1.9,13.4,5.8c2.9,3.5,4.3,7.9,4.3,12.6c0,0.8-0.1,1.6-0.1,2.4h-25.6C686.7,160.8,687.3,162.4,688.3,163.8z M688.3,149.3
		c-0.6,0.8-1.1,1.8-1.4,2.8h15.5c-0.3-1-0.8-2-1.4-2.8c-1.5-2-3.8-3-6.4-3C692.1,146.4,689.7,147.3,688.3,149.3z"/>
	<path d="M742.7,139.2v8.1c-1.8-0.7-4.2-1.1-6.7-0.9c-2.5,0.2-4.3,1.1-5.6,2.4c-1.5,1.7-2.3,4-2.3,6.6V174h-8.8v-34.9h7.8v4.8
		c0.9-1.5,2.1-2.9,3.7-3.9c1.9-1.2,4-1.7,6.1-1.8C738.8,138.1,740.8,138.4,742.7,139.2z"/>
</g>
<g>
	<path d="M76.8,279.8c-0.5-0.6-0.8-1.4-0.8-2.3c0-0.9,0.2-1.7,0.8-2.3c0.6-0.7,1.4-1,2.4-1c0.9,0,1.8,0.3,2.4,1
		c0.5,0.7,0.7,1.5,0.8,2.3c0,0.9-0.2,1.7-0.8,2.3c-0.6,0.7-1.5,1.1-2.4,1.1C78.2,280.8,77.3,280.5,76.8,279.8z M80.6,279
		c0.3-0.4,0.4-1,0.4-1.6s-0.1-1.1-0.4-1.6c-0.3-0.4-0.9-0.7-1.4-0.6c-0.6,0-1.1,0.2-1.4,0.6c-0.3,0.4-0.4,1-0.4,1.6
		c0,0.6,0.1,1.1,0.4,1.6c0.3,0.4,0.9,0.7,1.4,0.6C79.7,279.7,80.2,279.5,80.6,279z"/>
	<path d="M88.6,277.5c0,0.5-0.1,1.1-0.4,1.6c-0.5,1-1.6,1.6-2.7,1.6h-2.2v-6.4h2.2c1.1,0,2.2,0.6,2.7,1.6
		C88.5,276.4,88.6,276.9,88.6,277.5z M87.4,277.5c0-0.4-0.1-0.7-0.2-1c-0.3-0.6-1-1-1.7-1.1l-0.9,0v4.2l0.9,0c0.7,0,1.4-0.4,1.7-1.1
		C87.3,278.2,87.4,277.8,87.4,277.5z"/>
	<path d="M94.4,277.6c-0.4,0.5-1,0.9-1.7,0.9h-1.7v2.2h-1.2v-6.4h2.9c0.2,0,0.4,0,0.7,0.1c0.4,0.1,0.8,0.4,1.1,0.8
		c0.3,0.4,0.4,0.8,0.4,1.3C94.8,276.8,94.7,277.3,94.4,277.6z M93.6,276.4c0-0.2-0.1-0.5-0.2-0.6c-0.2-0.2-0.4-0.3-0.7-0.3h-1.7v2
		h1.7c0.2,0,0.5-0.1,0.7-0.4C93.5,276.8,93.6,276.6,93.6,276.4z"/>
</g>
</svg>
